# xmcd CD Database Entry
#
# Track frame offsets:
# 150
# 19441
# 36694
# 53448
# 68618
# 87006
# 100902
# 116684
# 131228
# 148059
# 158318
# 173022
# 189605
# 206672
# 225908
# 242647
# 258155
# 284166
#
# Disc length: 3997 seconds
#
# Revision: 3
# Processed by: cddbd v1.5PL3 Copyright (c) Steve Scherf et al.
# Submitted via: tcd 2.0b
#
DISCID=fb0f9b12
DTITLE=Sconosciuto - festival bar rosso cd2
DYEAR=1900
DGENRE=
TTITLE0=Traccia 1
TTITLE1=Traccia 2 io e la mia signorina (forse)
TTITLE2=Traccia 3
TTITLE3=Traccia 4
TTITLE4=Traccia 5
TTITLE5=Traccia 6
TTITLE6=Traccia 7
TTITLE7=Traccia 8
TTITLE8=Traccia 9
TTITLE9=Traccia 10
TTITLE10=Traccia 11
TTITLE11=Traccia 12
TTITLE12=Traccia 13
TTITLE13=Traccia 14
TTITLE14=Traccia 15
TTITLE15=Traccia 16
TTITLE16=Traccia 17
TTITLE17=Traccia 18
EXTD=
EXTT0=
EXTT1=
EXTT2=
EXTT3=
EXTT4=
EXTT5=
EXTT6=
EXTT7=
EXTT8=
EXTT9=
EXTT10=
EXTT11=
EXTT12=
EXTT13=
EXTT14=
EXTT15=
EXTT16=
EXTT17=
PLAYORDER=
